<mxfile host="app.diagrams.net" agent="Mozilla/5.0 (X11; Linux x86_64; rv:132.0) Gecko/20100101 Firefox/132.0" version="24.8.4" pages="2">
  <diagram name="Page-1" id="sbUuhHubPr3fAtM8dGqH">
    <mxGraphModel dx="2074" dy="1146" grid="1" gridSize="10" guides="1" tooltips="1" connect="1" arrows="1" fold="1" page="1" pageScale="1" pageWidth="827" pageHeight="1169" math="0" shadow="0">
      <root>
        <mxCell id="0" />
        <mxCell id="1" parent="0" />
        <mxCell id="ermWXvzBqtvCN3DnZnG3-1" value="Entries" style="shape=table;startSize=30;container=1;collapsible=1;childLayout=tableLayout;fixedRows=1;rowLines=0;fontStyle=1;align=center;resizeLast=1;html=1;" parent="1" vertex="1">
          <mxGeometry x="60" y="270" width="180" height="150" as="geometry" />
        </mxCell>
        <mxCell id="ermWXvzBqtvCN3DnZnG3-2" value="" style="shape=tableRow;horizontal=0;startSize=0;swimlaneHead=0;swimlaneBody=0;fillColor=none;collapsible=0;dropTarget=0;points=[[0,0.5],[1,0.5]];portConstraint=eastwest;top=0;left=0;right=0;bottom=1;" parent="ermWXvzBqtvCN3DnZnG3-1" vertex="1">
          <mxGeometry y="30" width="180" height="30" as="geometry" />
        </mxCell>
        <mxCell id="ermWXvzBqtvCN3DnZnG3-3" value="PK" style="shape=partialRectangle;connectable=0;fillColor=none;top=0;left=0;bottom=0;right=0;fontStyle=1;overflow=hidden;whiteSpace=wrap;html=1;" parent="ermWXvzBqtvCN3DnZnG3-2" vertex="1">
          <mxGeometry width="30" height="30" as="geometry">
            <mxRectangle width="30" height="30" as="alternateBounds" />
          </mxGeometry>
        </mxCell>
        <mxCell id="ermWXvzBqtvCN3DnZnG3-4" value="title" style="shape=partialRectangle;connectable=0;fillColor=none;top=0;left=0;bottom=0;right=0;align=left;spacingLeft=6;fontStyle=5;overflow=hidden;whiteSpace=wrap;html=1;" parent="ermWXvzBqtvCN3DnZnG3-2" vertex="1">
          <mxGeometry x="30" width="150" height="30" as="geometry">
            <mxRectangle width="150" height="30" as="alternateBounds" />
          </mxGeometry>
        </mxCell>
        <mxCell id="ermWXvzBqtvCN3DnZnG3-5" value="" style="shape=tableRow;horizontal=0;startSize=0;swimlaneHead=0;swimlaneBody=0;fillColor=none;collapsible=0;dropTarget=0;points=[[0,0.5],[1,0.5]];portConstraint=eastwest;top=0;left=0;right=0;bottom=0;" parent="ermWXvzBqtvCN3DnZnG3-1" vertex="1">
          <mxGeometry y="60" width="180" height="30" as="geometry" />
        </mxCell>
        <mxCell id="ermWXvzBqtvCN3DnZnG3-6" value="" style="shape=partialRectangle;connectable=0;fillColor=none;top=0;left=0;bottom=0;right=0;editable=1;overflow=hidden;whiteSpace=wrap;html=1;" parent="ermWXvzBqtvCN3DnZnG3-5" vertex="1">
          <mxGeometry width="30" height="30" as="geometry">
            <mxRectangle width="30" height="30" as="alternateBounds" />
          </mxGeometry>
        </mxCell>
        <mxCell id="ermWXvzBqtvCN3DnZnG3-7" value="last_modified" style="shape=partialRectangle;connectable=0;fillColor=none;top=0;left=0;bottom=0;right=0;align=left;spacingLeft=6;overflow=hidden;whiteSpace=wrap;html=1;" parent="ermWXvzBqtvCN3DnZnG3-5" vertex="1">
          <mxGeometry x="30" width="150" height="30" as="geometry">
            <mxRectangle width="150" height="30" as="alternateBounds" />
          </mxGeometry>
        </mxCell>
        <mxCell id="ermWXvzBqtvCN3DnZnG3-8" value="" style="shape=tableRow;horizontal=0;startSize=0;swimlaneHead=0;swimlaneBody=0;fillColor=none;collapsible=0;dropTarget=0;points=[[0,0.5],[1,0.5]];portConstraint=eastwest;top=0;left=0;right=0;bottom=0;" parent="ermWXvzBqtvCN3DnZnG3-1" vertex="1">
          <mxGeometry y="90" width="180" height="30" as="geometry" />
        </mxCell>
        <mxCell id="ermWXvzBqtvCN3DnZnG3-9" value="" style="shape=partialRectangle;connectable=0;fillColor=none;top=0;left=0;bottom=0;right=0;editable=1;overflow=hidden;whiteSpace=wrap;html=1;" parent="ermWXvzBqtvCN3DnZnG3-8" vertex="1">
          <mxGeometry width="30" height="30" as="geometry">
            <mxRectangle width="30" height="30" as="alternateBounds" />
          </mxGeometry>
        </mxCell>
        <mxCell id="ermWXvzBqtvCN3DnZnG3-10" value="size" style="shape=partialRectangle;connectable=0;fillColor=none;top=0;left=0;bottom=0;right=0;align=left;spacingLeft=6;overflow=hidden;whiteSpace=wrap;html=1;" parent="ermWXvzBqtvCN3DnZnG3-8" vertex="1">
          <mxGeometry x="30" width="150" height="30" as="geometry">
            <mxRectangle width="150" height="30" as="alternateBounds" />
          </mxGeometry>
        </mxCell>
        <mxCell id="ermWXvzBqtvCN3DnZnG3-11" value="" style="shape=tableRow;horizontal=0;startSize=0;swimlaneHead=0;swimlaneBody=0;fillColor=none;collapsible=0;dropTarget=0;points=[[0,0.5],[1,0.5]];portConstraint=eastwest;top=0;left=0;right=0;bottom=0;" parent="ermWXvzBqtvCN3DnZnG3-1" vertex="1">
          <mxGeometry y="120" width="180" height="30" as="geometry" />
        </mxCell>
        <mxCell id="ermWXvzBqtvCN3DnZnG3-12" value="" style="shape=partialRectangle;connectable=0;fillColor=none;top=0;left=0;bottom=0;right=0;editable=1;overflow=hidden;whiteSpace=wrap;html=1;" parent="ermWXvzBqtvCN3DnZnG3-11" vertex="1">
          <mxGeometry width="30" height="30" as="geometry">
            <mxRectangle width="30" height="30" as="alternateBounds" />
          </mxGeometry>
        </mxCell>
        <mxCell id="ermWXvzBqtvCN3DnZnG3-13" value="body" style="shape=partialRectangle;connectable=0;fillColor=none;top=0;left=0;bottom=0;right=0;align=left;spacingLeft=6;overflow=hidden;whiteSpace=wrap;html=1;" parent="ermWXvzBqtvCN3DnZnG3-11" vertex="1">
          <mxGeometry x="30" width="150" height="30" as="geometry">
            <mxRectangle width="150" height="30" as="alternateBounds" />
          </mxGeometry>
        </mxCell>
        <mxCell id="ermWXvzBqtvCN3DnZnG3-14" value="Tags" style="shape=table;startSize=30;container=1;collapsible=1;childLayout=tableLayout;fixedRows=1;rowLines=0;fontStyle=1;align=center;resizeLast=1;html=1;" parent="1" vertex="1">
          <mxGeometry x="280" y="270" width="180" height="150" as="geometry" />
        </mxCell>
        <mxCell id="ermWXvzBqtvCN3DnZnG3-15" value="" style="shape=tableRow;horizontal=0;startSize=0;swimlaneHead=0;swimlaneBody=0;fillColor=none;collapsible=0;dropTarget=0;points=[[0,0.5],[1,0.5]];portConstraint=eastwest;top=0;left=0;right=0;bottom=1;" parent="ermWXvzBqtvCN3DnZnG3-14" vertex="1">
          <mxGeometry y="30" width="180" height="30" as="geometry" />
        </mxCell>
        <mxCell id="ermWXvzBqtvCN3DnZnG3-16" value="PK" style="shape=partialRectangle;connectable=0;fillColor=none;top=0;left=0;bottom=0;right=0;fontStyle=1;overflow=hidden;whiteSpace=wrap;html=1;" parent="ermWXvzBqtvCN3DnZnG3-15" vertex="1">
          <mxGeometry width="30" height="30" as="geometry">
            <mxRectangle width="30" height="30" as="alternateBounds" />
          </mxGeometry>
        </mxCell>
        <mxCell id="ermWXvzBqtvCN3DnZnG3-17" value="UniqueID" style="shape=partialRectangle;connectable=0;fillColor=none;top=0;left=0;bottom=0;right=0;align=left;spacingLeft=6;fontStyle=5;overflow=hidden;whiteSpace=wrap;html=1;" parent="ermWXvzBqtvCN3DnZnG3-15" vertex="1">
          <mxGeometry x="30" width="150" height="30" as="geometry">
            <mxRectangle width="150" height="30" as="alternateBounds" />
          </mxGeometry>
        </mxCell>
        <mxCell id="ermWXvzBqtvCN3DnZnG3-18" value="" style="shape=tableRow;horizontal=0;startSize=0;swimlaneHead=0;swimlaneBody=0;fillColor=none;collapsible=0;dropTarget=0;points=[[0,0.5],[1,0.5]];portConstraint=eastwest;top=0;left=0;right=0;bottom=0;" parent="ermWXvzBqtvCN3DnZnG3-14" vertex="1">
          <mxGeometry y="60" width="180" height="30" as="geometry" />
        </mxCell>
        <mxCell id="ermWXvzBqtvCN3DnZnG3-19" value="" style="shape=partialRectangle;connectable=0;fillColor=none;top=0;left=0;bottom=0;right=0;editable=1;overflow=hidden;whiteSpace=wrap;html=1;" parent="ermWXvzBqtvCN3DnZnG3-18" vertex="1">
          <mxGeometry width="30" height="30" as="geometry">
            <mxRectangle width="30" height="30" as="alternateBounds" />
          </mxGeometry>
        </mxCell>
        <mxCell id="ermWXvzBqtvCN3DnZnG3-20" value="Row 1" style="shape=partialRectangle;connectable=0;fillColor=none;top=0;left=0;bottom=0;right=0;align=left;spacingLeft=6;overflow=hidden;whiteSpace=wrap;html=1;" parent="ermWXvzBqtvCN3DnZnG3-18" vertex="1">
          <mxGeometry x="30" width="150" height="30" as="geometry">
            <mxRectangle width="150" height="30" as="alternateBounds" />
          </mxGeometry>
        </mxCell>
        <mxCell id="ermWXvzBqtvCN3DnZnG3-21" value="" style="shape=tableRow;horizontal=0;startSize=0;swimlaneHead=0;swimlaneBody=0;fillColor=none;collapsible=0;dropTarget=0;points=[[0,0.5],[1,0.5]];portConstraint=eastwest;top=0;left=0;right=0;bottom=0;" parent="ermWXvzBqtvCN3DnZnG3-14" vertex="1">
          <mxGeometry y="90" width="180" height="30" as="geometry" />
        </mxCell>
        <mxCell id="ermWXvzBqtvCN3DnZnG3-22" value="" style="shape=partialRectangle;connectable=0;fillColor=none;top=0;left=0;bottom=0;right=0;editable=1;overflow=hidden;whiteSpace=wrap;html=1;" parent="ermWXvzBqtvCN3DnZnG3-21" vertex="1">
          <mxGeometry width="30" height="30" as="geometry">
            <mxRectangle width="30" height="30" as="alternateBounds" />
          </mxGeometry>
        </mxCell>
        <mxCell id="ermWXvzBqtvCN3DnZnG3-23" value="Row 2" style="shape=partialRectangle;connectable=0;fillColor=none;top=0;left=0;bottom=0;right=0;align=left;spacingLeft=6;overflow=hidden;whiteSpace=wrap;html=1;" parent="ermWXvzBqtvCN3DnZnG3-21" vertex="1">
          <mxGeometry x="30" width="150" height="30" as="geometry">
            <mxRectangle width="150" height="30" as="alternateBounds" />
          </mxGeometry>
        </mxCell>
        <mxCell id="ermWXvzBqtvCN3DnZnG3-24" value="" style="shape=tableRow;horizontal=0;startSize=0;swimlaneHead=0;swimlaneBody=0;fillColor=none;collapsible=0;dropTarget=0;points=[[0,0.5],[1,0.5]];portConstraint=eastwest;top=0;left=0;right=0;bottom=0;" parent="ermWXvzBqtvCN3DnZnG3-14" vertex="1">
          <mxGeometry y="120" width="180" height="30" as="geometry" />
        </mxCell>
        <mxCell id="ermWXvzBqtvCN3DnZnG3-25" value="" style="shape=partialRectangle;connectable=0;fillColor=none;top=0;left=0;bottom=0;right=0;editable=1;overflow=hidden;whiteSpace=wrap;html=1;" parent="ermWXvzBqtvCN3DnZnG3-24" vertex="1">
          <mxGeometry width="30" height="30" as="geometry">
            <mxRectangle width="30" height="30" as="alternateBounds" />
          </mxGeometry>
        </mxCell>
        <mxCell id="ermWXvzBqtvCN3DnZnG3-26" value="Row 3" style="shape=partialRectangle;connectable=0;fillColor=none;top=0;left=0;bottom=0;right=0;align=left;spacingLeft=6;overflow=hidden;whiteSpace=wrap;html=1;" parent="ermWXvzBqtvCN3DnZnG3-24" vertex="1">
          <mxGeometry x="30" width="150" height="30" as="geometry">
            <mxRectangle width="150" height="30" as="alternateBounds" />
          </mxGeometry>
        </mxCell>
      </root>
    </mxGraphModel>
  </diagram>
  <diagram id="snGte9gQW7YsiyRYdoNp" name="Page-2">
    <mxGraphModel dx="2074" dy="1146" grid="1" gridSize="10" guides="1" tooltips="1" connect="1" arrows="1" fold="1" page="1" pageScale="1" pageWidth="827" pageHeight="1169" math="0" shadow="0">
      <root>
        <mxCell id="0" />
        <mxCell id="1" parent="0" />
        <mxCell id="zUfmm1rPV66NVQHJnP8q-2" value="" style="rounded=0;whiteSpace=wrap;html=1;" vertex="1" parent="1">
          <mxGeometry x="40" y="160" width="640" height="240" as="geometry" />
        </mxCell>
        <mxCell id="zUfmm1rPV66NVQHJnP8q-4" value="START DASHCAMS" style="rounded=0;whiteSpace=wrap;html=1;" vertex="1" parent="1">
          <mxGeometry x="40" y="190" width="160" height="60" as="geometry" />
        </mxCell>
        <mxCell id="zUfmm1rPV66NVQHJnP8q-5" value="PARK" style="rounded=0;whiteSpace=wrap;html=1;" vertex="1" parent="1">
          <mxGeometry x="200" y="190" width="160" height="60" as="geometry" />
        </mxCell>
        <mxCell id="zUfmm1rPV66NVQHJnP8q-6" value="VIEW DASHCAM LOG" style="rounded=0;whiteSpace=wrap;html=1;" vertex="1" parent="1">
          <mxGeometry x="40" y="250" width="160" height="60" as="geometry" />
        </mxCell>
        <mxCell id="zUfmm1rPV66NVQHJnP8q-7" value="SATNAV" style="rounded=0;whiteSpace=wrap;html=1;" vertex="1" parent="1">
          <mxGeometry x="360" y="190" width="160" height="60" as="geometry" />
        </mxCell>
        <mxCell id="zUfmm1rPV66NVQHJnP8q-8" value="MUSIC" style="rounded=0;whiteSpace=wrap;html=1;" vertex="1" parent="1">
          <mxGeometry x="520" y="190" width="160" height="60" as="geometry" />
        </mxCell>
        <mxCell id="zUfmm1rPV66NVQHJnP8q-9" value="DRIVE METRICS" style="rounded=0;whiteSpace=wrap;html=1;" vertex="1" parent="1">
          <mxGeometry x="200" y="250" width="160" height="60" as="geometry" />
        </mxCell>
        <mxCell id="zUfmm1rPV66NVQHJnP8q-10" value="" style="rounded=0;whiteSpace=wrap;html=1;" vertex="1" parent="1">
          <mxGeometry x="40" y="430" width="640" height="240" as="geometry" />
        </mxCell>
        <mxCell id="zUfmm1rPV66NVQHJnP8q-13" value="&lt;div align=&quot;left&quot;&gt;&amp;nbsp; DRIVE METRICS&lt;/div&gt;" style="rounded=0;whiteSpace=wrap;html=1;align=left;fontStyle=1" vertex="1" parent="1">
          <mxGeometry x="40" y="460" width="640" height="30" as="geometry" />
        </mxCell>
        <mxCell id="zUfmm1rPV66NVQHJnP8q-14" value="FUEL: 20% FULL" style="rounded=0;whiteSpace=wrap;html=1;" vertex="1" parent="1">
          <mxGeometry x="320" y="490" width="180" height="50" as="geometry" />
        </mxCell>
        <mxCell id="zUfmm1rPV66NVQHJnP8q-17" value="&lt;font style=&quot;font-size: 33px;&quot;&gt;34 MPH&lt;/font&gt;" style="rounded=0;whiteSpace=wrap;html=1;" vertex="1" parent="1">
          <mxGeometry x="40" y="490" width="280" height="90" as="geometry" />
        </mxCell>
        <mxCell id="zUfmm1rPV66NVQHJnP8q-18" value="08:00 " style="rounded=0;whiteSpace=wrap;html=1;fontStyle=1" vertex="1" parent="1">
          <mxGeometry x="620" y="430" width="60" height="30" as="geometry" />
        </mxCell>
        <mxCell id="zUfmm1rPV66NVQHJnP8q-19" value="Tue 05 August 2024" style="rounded=0;whiteSpace=wrap;html=1;fontStyle=1" vertex="1" parent="1">
          <mxGeometry x="490" y="430" width="130" height="30" as="geometry" />
        </mxCell>
        <mxCell id="zUfmm1rPV66NVQHJnP8q-20" value="WIFI: CONN BT: CONN" style="rounded=0;whiteSpace=wrap;html=1;fontStyle=0" vertex="1" parent="1">
          <mxGeometry x="130" y="430" width="130" height="30" as="geometry" />
        </mxCell>
        <mxCell id="zUfmm1rPV66NVQHJnP8q-21" value="&lt;font style=&quot;font-size: 33px;&quot;&gt;8 REV&lt;/font&gt;" style="rounded=0;whiteSpace=wrap;html=1;" vertex="1" parent="1">
          <mxGeometry x="40" y="580" width="280" height="90" as="geometry" />
        </mxCell>
        <mxCell id="zUfmm1rPV66NVQHJnP8q-25" value="&lt;div align=&quot;center&quot;&gt;&lt;span&gt;40.446° N 79.982° W / Littlehampton, UK&lt;br&gt;&lt;/span&gt;&lt;/div&gt;" style="rounded=0;whiteSpace=wrap;html=1;align=center;" vertex="1" parent="1">
          <mxGeometry x="260" y="430" width="230" height="30" as="geometry" />
        </mxCell>
        <mxCell id="zUfmm1rPV66NVQHJnP8q-27" value="FUEL: 20% FULL" style="rounded=0;whiteSpace=wrap;html=1;" vertex="1" parent="1">
          <mxGeometry x="500" y="490" width="180" height="50" as="geometry" />
        </mxCell>
        <mxCell id="zUfmm1rPV66NVQHJnP8q-3" value="CARPUTER" style="rounded=0;whiteSpace=wrap;html=1;fontStyle=1" vertex="1" parent="1">
          <mxGeometry x="40" y="430" width="90" height="30" as="geometry" />
        </mxCell>
        <mxCell id="zUfmm1rPV66NVQHJnP8q-28" value="08:00 " style="rounded=0;whiteSpace=wrap;html=1;fontStyle=1" vertex="1" parent="1">
          <mxGeometry x="620" y="160" width="60" height="30" as="geometry" />
        </mxCell>
        <mxCell id="zUfmm1rPV66NVQHJnP8q-29" value="Tue 05 August 2024" style="rounded=0;whiteSpace=wrap;html=1;fontStyle=1" vertex="1" parent="1">
          <mxGeometry x="490" y="160" width="130" height="30" as="geometry" />
        </mxCell>
        <mxCell id="zUfmm1rPV66NVQHJnP8q-30" value="WIFI: CONN BT: CONN" style="rounded=0;whiteSpace=wrap;html=1;fontStyle=0" vertex="1" parent="1">
          <mxGeometry x="130" y="160" width="130" height="30" as="geometry" />
        </mxCell>
        <mxCell id="zUfmm1rPV66NVQHJnP8q-31" value="&lt;div align=&quot;center&quot;&gt;&lt;span&gt;40.446° N 79.982° W / Littlehampton, UK&lt;br&gt;&lt;/span&gt;&lt;/div&gt;" style="rounded=0;whiteSpace=wrap;html=1;align=center;" vertex="1" parent="1">
          <mxGeometry x="260" y="160" width="230" height="30" as="geometry" />
        </mxCell>
        <mxCell id="zUfmm1rPV66NVQHJnP8q-32" value="CARPUTER" style="rounded=0;whiteSpace=wrap;html=1;fontStyle=1" vertex="1" parent="1">
          <mxGeometry x="40" y="160" width="90" height="30" as="geometry" />
        </mxCell>
        <mxCell id="zUfmm1rPV66NVQHJnP8q-33" value="BATTERY: 43% CHARGED" style="rounded=0;whiteSpace=wrap;html=1;" vertex="1" parent="1">
          <mxGeometry x="320" y="540" width="180" height="50" as="geometry" />
        </mxCell>
        <mxCell id="zUfmm1rPV66NVQHJnP8q-34" value="HEADLIGHTS: DIMMED" style="rounded=0;whiteSpace=wrap;html=1;" vertex="1" parent="1">
          <mxGeometry x="500" y="540" width="180" height="50" as="geometry" />
        </mxCell>
        <mxCell id="zUfmm1rPV66NVQHJnP8q-11" value="Journey Time: 00:16" style="rounded=0;whiteSpace=wrap;html=1;fontStyle=1" vertex="1" parent="1">
          <mxGeometry x="500" y="460" width="180" height="30" as="geometry" />
        </mxCell>
      </root>
    </mxGraphModel>
  </diagram>
</mxfile>
